Coordinates
version=1
nRows=24
nColumns=22
inDegrees=yes

Units are S.I. units (second, meters, Newtons, ...)
If the header above contains a line with 'inDegrees', this indicates whether rotational values are in degrees (yes) or radians (no).

endheader
time	pelvis_tilt	pelvis_list	pelvis_rotation	pelvis_tx	pelvis_ty	pelvis_tz	hip_flexion_r	hip_adduction_r	hip_rotation_r	knee_angle_r	ankle_angle_r	subtalar_angle_r	hip_flexion_l	hip_adduction_l	hip_rotation_l	knee_angle_l	ankle_angle_l	subtalar_angle_l	lumbar_extension	lumbar_bending	lumbar_rotation
      2.86000000	      5.17407250	     -4.17379431	    -42.37542523	      1.21297400	      0.89774554	      0.91742170	      9.53840989	      2.44335544	      5.62635885	    -25.09167351	     12.56701748	     -8.71075435	      7.20899743	     -1.37287973	     -5.56405064	    -30.18859572	     14.61962956	     -3.31690355	    -13.70278636	     -1.55816050	      1.50998813
      2.87000000	      5.38626992	     -4.07080563	    -41.80156072	      1.21770581	      0.89808185	      0.92138527	      8.87941058	      2.18071159	      4.97555092	    -24.98835187	     13.09021195	     -9.14445587	      6.39242594	     -1.12598181	     -5.40745096	    -29.58226372	     14.90982419	     -3.42016102	    -13.65229296	     -1.73746726	      1.32311440
      2.88000000	      5.58387478	     -4.00171215	    -41.30054942	      1.22213792	      0.89843654	      0.92528030	      8.25429880	      1.97712293	      4.42057824	    -24.92094724	     13.60312285	     -9.56042967	      5.55354923	     -0.94083248	     -5.33885567	    -28.94948224	     15.25212419	     -3.57612245	    -13.64978200	     -1.89327494	      1.20247015
      2.89000000	      5.73192057	     -3.94962900	    -40.85271671	      1.22628179	      0.89875583	      0.92903847	      7.71722489	      1.82927210	      3.91835373	    -24.90848613	     14.05698015	     -9.89349978	      4.76707129	     -0.82622114	     -5.34249133	    -28.33641056	     15.57994309	     -3.77223378	    -13.65393974	     -2.00650181	      1.13649568
      2.90000000	      5.80875036	     -3.85405258	    -40.43161007	      1.23017433	      0.89897159	      0.93261284	      7.30278601	      1.70239341	      3.51766741	    -24.90963425	     14.46707912	    -10.01629290	      4.10369224	     -0.72753847	     -5.32391855	    -27.74579174	     15.88495066	     -3.90225188	    -13.59689091	     -2.11010036	      1.06832920
      2.91000000	      5.83463009	     -3.76284517	    -40.05095116	      1.23381530	      0.89914748	      0.93604453	      6.97382332	      1.61355872	      3.16240507	    -24.94907923	     14.80231608	    -10.01520165	      3.51999073	     -0.68683022	     -5.36473363	    -27.19831747	     16.15879685	     -4.02614159	    -13.52963030	     -2.18113054	      1.05289098
      2.92000000	      5.81024698	     -3.65011929	    -39.70377096	      1.23723061	      0.89925984	      0.93933681	      6.73948075	      1.54188937	      2.86203778	    -25.01638177	     15.07734570	     -9.88474452	      3.03752857	     -0.67624619	     -5.44134746	    -26.69850891	     16.39446753	     -4.11333535	    -13.42716215	     -2.24320312	      1.07105600
      2.93000000	      5.72347096	     -3.49960027	    -39.39517790	      1.24042047	      0.89926081	      0.94250193	      6.62937781	      1.48728641	      2.62848351	    -25.12971762	     15.32689817	     -9.74455879	      2.68594782	     -0.69328400	     -5.57243493	    -26.26129625	     16.62934778	     -4.11694061	    -13.26297654	     -2.30104042	      1.12111094
      2.94000000	      5.65320373	     -3.34782385	    -39.10219587	      1.24349151	      0.89934694	      0.94557937	      6.48203720	      1.41471038	      2.40863686	    -25.17212758	     15.50166776	     -9.39054713	      2.33887259	     -0.70078436	     -5.70836153	    -25.83142839	     16.74616329	     -4.10252276	    -13.11717921	     -2.38182608	      1.21132417
      2.95000000	      5.53257972	     -3.17457357	    -38.83846870	      1.24636500	      0.89935222	      0.94855872	      6.42666405	      1.36345310	      2.20318998	    -25.24775458	     15.64648006	     -9.07127987	      2.10621288	     -0.74515908	     -5.91008534	    -25.47853449	     16.84714955	     -4.00299112	    -12.92424108	     -2.45537183	      1.33992303
      2.96000000	      5.40819381	     -2.98562569	    -38.57573004	      1.24911529	      0.89936950	      0.95143921	      6.36367129	      1.30579799	      2.00994669	    -25.26529172	     15.81010837	     -8.95961689	      1.92392820	     -0.78554089	     -6.11892101	    -25.16557777	     16.93743446	     -3.92111785	    -12.72057706	     -2.54711770	      1.46426302
      2.97000000	      5.30425861	     -2.78794059	    -38.30825114	      1.25177049	      0.89945770	      0.95420948	      6.25033884	      1.22379244	      1.80112423	    -25.19314935	     15.93153889	     -8.72553205	      1.75588646	     -0.80608757	     -6.30707555	    -24.87514253	     16.91382659	     -3.69097440	    -12.53185027	     -2.66687819	      1.61432354
      2.98000000	      5.19523622	     -2.59713444	    -38.01705811	      1.25432880	      0.89957025	      0.95684637	      6.11187054	      1.14820339	      1.53614345	    -25.06249848	     16.05125708	     -8.60745882	      1.62821900	     -0.84364897	     -6.48747530	    -24.63065655	     16.87882104	     -3.46941943	    -12.34989723	     -2.77687367	      1.74727788
      2.99000000	      5.09546068	     -2.40573036	    -37.70318536	      1.25681894	      0.89972748	      0.95935937	      5.92768157	      1.06432536	      1.24020790	    -24.85343532	     16.16416984	     -8.54330251	      1.51341328	     -0.87504152	     -6.63454444	    -24.39962550	     16.80198420	     -3.21741127	    -12.17724671	     -2.89363332	      1.85368046
      3.00000000	      5.00864959	     -2.20707603	    -37.35585782	      1.25923563	      0.89990129	      0.96172227	      5.69931249	      0.96232352	      0.89714545	    -24.56586400	     16.29692402	     -8.52512150	      1.43685418	     -0.89494534	     -6.75254342	    -24.22649959	     16.69891300	     -3.00626349	    -12.01924287	     -3.02916359	      1.94817993
      3.01000000	      4.93257398	     -2.01985992	    -36.97193826	      1.26163168	      0.90011852	      0.96394306	      5.41883714	      0.85815153	      0.50712029	    -24.21144589	     16.40715755	     -8.52115511	      1.34402181	     -0.90808284	     -6.79053159	    -24.03264980	     16.56928001	     -2.71194882	    -11.87826673	     -3.15645603	      2.00228763
      3.02000000	      4.86069199	     -1.84626281	    -36.56619646	      1.26400252	      0.90034843	      0.96605440	      5.10051996	      0.76310152	      0.09658479	    -23.80784911	     16.48623845	     -8.52574647	      1.23321947	     -0.92361478	     -6.77415637	    -23.81530676	     16.45163998	     -2.31179943	    -11.74442980	     -3.27347336	      2.02601096
      3.03000000	      4.78233469	     -1.67452401	    -36.11844536	      1.26631587	      0.90052040	      0.96796838	      4.78142591	      0.66762899	     -0.36708086	    -23.38520550	     16.62711363	     -8.54243672	      1.17781680	     -0.94464122	     -6.71198466	    -23.66771635	     16.30840766	     -2.05670349	    -11.61633788	     -3.37938007	      2.02635074
      3.04000000	      4.70796474	     -1.52311145	    -35.64031561	      1.26862494	      0.90068788	      0.96973533	      4.43528969	      0.58316300	     -0.86627335	    -22.93919284	     16.72741937	     -8.56476848	      1.09146162	     -0.96429870	     -6.55930601	    -23.47632771	     16.20287718	     -1.75051542	    -11.50140710	     -3.46118038	      1.97571212
      3.05000000	      4.63204743	     -1.38956640	    -35.15469624	      1.27088491	      0.90081618	      0.97138227	      4.08700873	      0.51530600	     -1.37089671	    -22.49725288	     16.82332969	     -8.58375502	      1.00021993	     -0.99317159	     -6.36661140	    -23.28207694	     16.11661633	     -1.44121208	    -11.39183650	     -3.52348617	      1.90825989
      3.06000000	      4.55134734	     -1.27286020	    -34.66588557	      1.27309158	      0.90089715	      0.97289761	      3.74749862	      0.46503325	     -1.87477207	    -22.06937058	     16.92751461	     -8.59852433	      0.90807910	     -1.02849569	     -6.13234972	    -23.08294661	     16.04840489	     -1.16126372	    -11.28596611	     -3.56160892	      1.82472465
      3.07000000	      4.47333352	     -1.18383272	    -34.19729930	      1.27524616	      0.90095576	      0.97434671	      3.41169923	      0.43972433	     -2.36276278	    -21.67067075	     17.01971151	     -8.59621279	      0.78118662	     -1.07583973	     -5.87861734	    -22.85133989	     15.99544898	     -0.84358084	    -11.18834712	     -3.57585392	      1.74694191
      3.08000000	      4.38376899	     -1.08805540	    -33.72967154	      1.27731364	      0.90093088	      0.97567897	      3.10703660	      0.41981852	     -2.82238234	    -21.28433448	     17.14957380	     -8.59971331	      0.70898186	     -1.11728072	     -5.59637016	    -22.68029566	     15.97437529	     -0.66956361	    -11.07374872	     -3.59281901	      1.66023606
      3.09000000	      4.29489179	     -1.01445761	    -33.28652309	      1.27933540	      0.90088638	      0.97695486	      2.81215498	      0.41979728	     -3.26673976	    -20.92732269	     17.26587462	     -8.59284316	      0.60721087	     -1.16725070	     -5.31518466	    -22.47575279	     15.97268892	     -0.50241017	    -10.96357640	     -3.58723450	      1.57617301
